<svg width="80" height="80" viewBox="0 0 80 80" fill="none" xmlns="http://www.w3.org/2000/svg">
<g clip-path="url(#clip0_66_4)">
<path d="M13.5312 10L26.8438 23.3125C30.3906 19.0156 32.5 13.5 32.5 7.5C32.5 5.20313 32.1875 2.98437 31.6094 0.875C24.7813 2.34375 18.5938 5.54688 13.5312 10ZM10 13.5312C5.54688 18.5938 2.34375 24.7813 0.875 31.6094C2.98437 32.1875 5.20313 32.5 7.5 32.5C13.5 32.5 19.0156 30.3906 23.3281 26.8594L10 13.5312ZM40 0C38.8594 0 37.7187 0.046875 36.5937 0.140625C37.1875 2.5 37.5 4.96875 37.5 7.5C37.5 14.8906 34.8281 21.6406 30.4063 26.875L40 36.4687L66.4687 10C59.4062 3.78125 50.1406 0 40 0ZM7.5 37.5C4.96875 37.5 2.5 37.1875 0.140625 36.5937C0.046875 37.7187 0 38.8594 0 40C0 50.1406 3.78125 59.4062 10 66.4687L36.4687 40L26.875 30.4063C21.6406 34.8281 14.8906 37.5 7.5 37.5ZM79.8594 43.4062C79.9531 42.2812 80 41.1406 80 40C80 29.8594 76.2187 20.5937 70 13.5312L43.5313 40L53.125 49.5937C58.3438 45.1719 65.1094 42.5 72.5 42.5C75.0313 42.5 77.5 42.8125 79.8594 43.4062ZM79.125 48.3906C77.0156 47.8125 74.7969 47.5 72.5 47.5C66.5 47.5 60.9844 49.6094 56.6719 53.1406L70 66.4687C74.4531 61.4219 77.6719 55.2344 79.125 48.3906ZM53.1406 56.6719C49.6094 60.9844 47.5 66.5 47.5 72.5C47.5 74.7969 47.8125 77.0156 48.3906 79.125C55.2188 77.6562 61.4062 74.4531 66.4687 70L53.1563 56.6875L53.1406 56.6719ZM49.5937 53.125L40 43.5313L13.5312 70C20.5781 76.2187 29.8438 80 40 80C41.1406 80 42.2812 79.9531 43.4062 79.8594C42.8125 77.5 42.5 75.0313 42.5 72.5C42.5 65.1094 45.1719 58.3594 49.5937 53.125Z" fill="#FF9E58"/>
</g>
<defs>
<clipPath id="clip0_66_4">
<rect width="80" height="80" fill="white"/>
</clipPath>
</defs>
</svg>
