<svg width="80" height="72" viewBox="0 0 80 72" fill="none" xmlns="http://www.w3.org/2000/svg">
<g clip-path="url(#clip0_66_8)">
<path d="M34.7776 3.88888C39.9859 -1.30557 48.4442 -1.30557 53.6665 3.88888L69.4303 19.625C73.4859 23.6805 74.3887 29.6805 72.1248 34.5972C68.6664 32.4028 64.5692 31.125 60.1665 31.125C50.1665 31.125 41.6942 37.6944 38.8748 46.75L21.6248 29.5555C20.7498 28.6944 19.347 28.6944 18.4859 29.5555C17.6248 30.4167 17.6248 31.8333 18.4859 32.6944L37.9165 52.0694C37.8887 52.4861 37.8748 52.9167 37.8748 53.3333C37.8748 57.1944 38.8609 60.8055 40.597 63.9722C39.3053 64.0417 37.9998 63.8333 36.7637 63.3194L28.8887 60.0972C25.5692 58.7361 21.7498 59.5 19.222 62.0278L11.722 69.4861C9.55534 71.6528 6.02756 71.6528 3.84701 69.4861C1.66645 67.3194 1.68034 63.8055 3.84701 61.6389L11.2776 54.2222C13.8331 51.6805 14.5831 47.8611 13.2081 44.5278L9.87479 36.5C8.4859 33.1805 9.24979 29.3611 11.8053 26.8194L34.7776 3.88888ZM42.222 53.3333C42.222 48.6184 44.095 44.0965 47.429 40.7625C50.763 37.4286 55.2848 35.5555 59.9998 35.5555C64.7147 35.5555 69.2366 37.4286 72.5706 40.7625C75.9045 44.0965 77.7776 48.6184 77.7776 53.3333C77.7776 58.0483 75.9045 62.5701 72.5706 65.9041C69.2366 69.2381 64.7147 71.1111 59.9998 71.1111C55.2848 71.1111 50.763 69.2381 47.429 65.9041C44.095 62.5701 42.222 58.0483 42.222 53.3333ZM46.6665 51.1111C46.6665 51.7005 46.9006 52.2657 47.3173 52.6824C47.7341 53.0992 48.2993 53.3333 48.8887 53.3333C49.478 53.3333 50.0433 53.0992 50.46 52.6824C50.8768 52.2657 51.1109 51.7005 51.1109 51.1111C51.1109 50.5217 50.8768 49.9565 50.46 49.5397C50.0433 49.123 49.478 48.8889 48.8887 48.8889C48.2993 48.8889 47.7341 49.123 47.3173 49.5397C46.9006 49.9565 46.6665 50.5217 46.6665 51.1111ZM57.7776 62.2222C57.1882 62.2222 56.623 62.4563 56.2062 62.8731C55.7895 63.2898 55.5553 63.8551 55.5553 64.4444C55.5553 65.0338 55.7895 65.599 56.2062 66.0158C56.623 66.4325 57.1882 66.6667 57.7776 66.6667C58.3669 66.6667 58.9322 66.4325 59.3489 66.0158C59.7657 65.599 59.9998 65.0338 59.9998 64.4444C59.9998 63.8551 59.7657 63.2898 59.3489 62.8731C58.9322 62.4563 58.3669 62.2222 57.7776 62.2222ZM57.7776 53.3333C57.7776 53.9227 58.0117 54.4879 58.4284 54.9047C58.8452 55.3214 59.4104 55.5555 59.9998 55.5555C60.5892 55.5555 61.1544 55.3214 61.5711 54.9047C61.9879 54.4879 62.222 53.9227 62.222 53.3333C62.222 52.744 61.9879 52.1787 61.5711 51.762C61.1544 51.3452 60.5892 51.1111 59.9998 51.1111C59.4104 51.1111 58.8452 51.3452 58.4284 51.762C58.0117 52.1787 57.7776 52.744 57.7776 53.3333ZM71.1109 53.3333C70.5215 53.3333 69.9563 53.5674 69.5395 53.9842C69.1228 54.4009 68.8887 54.9662 68.8887 55.5555C68.8887 56.1449 69.1228 56.7101 69.5395 57.1269C69.9563 57.5436 70.5215 57.7778 71.1109 57.7778C71.7003 57.7778 72.2655 57.5436 72.6822 57.1269C73.099 56.7101 73.3331 56.1449 73.3331 55.5555C73.3331 54.9662 73.099 54.4009 72.6822 53.9842C72.2655 53.5674 71.7003 53.3333 71.1109 53.3333ZM59.9998 42.2222C59.9998 42.8116 60.2339 43.3768 60.6507 43.7936C61.0674 44.2103 61.6326 44.4444 62.222 44.4444C62.8114 44.4444 63.3766 44.2103 63.7934 43.7936C64.2101 43.3768 64.4442 42.8116 64.4442 42.2222C64.4442 41.6328 64.2101 41.0676 63.7934 40.6509C63.3766 40.2341 62.8114 40 62.222 40C61.6326 40 61.0674 40.2341 60.6507 40.6509C60.2339 41.0676 59.9998 41.6328 59.9998 42.2222Z" fill="#14CDF9"/>
</g>
<defs>
<clipPath id="clip0_66_8">
<rect width="80" height="71.1111" fill="white"/>
</clipPath>
</defs>
</svg>
