<svg width="80" height="80" viewBox="0 0 80 80" fill="none" xmlns="http://www.w3.org/2000/svg">
<g clip-path="url(#clip0_66_6)">
<path d="M0.03125 38.2969C0.015625 38.8594 0 39.4219 0 40C0 62.0938 17.9062 80 40 80C40.5781 80 41.1406 79.9844 41.7031 79.9688C41.1094 78.2969 40.6719 76.5625 40.3906 74.7969C39.7031 70.5469 39.9375 66.2031 41.0781 62.0469C42.2188 57.8906 44.2344 54.0469 47 50.7344C49.7656 47.4219 53.2031 44.7656 57.0781 42.9062C60.9531 41.0469 65.2031 40.0625 69.5 39.9844C73.0625 39.9219 76.6094 40.5 79.9688 41.6875C80 41.125 80 40.5625 80 39.9844C80 17.9062 62.0938 0 40 0C39.4219 0 38.8594 0.015625 38.2969 0.03125C39.9688 4.79688 40.4375 9.9375 39.5781 14.9688C38.4688 21.5938 35.1562 27.6562 30.2031 32.1719C25.25 36.6875 18.8906 39.4219 12.2031 39.9219C8.04688 40.2344 3.90625 39.6562 0.03125 38.2969ZM32.3125 0.734375C16.3906 3.84375 3.84375 16.3906 0.734375 32.3125C4.20312 33.75 7.98438 34.375 11.7656 34.0938C17.1562 33.7031 22.2656 31.5 26.2656 27.8594C30.2656 24.2188 32.9219 19.3438 33.8281 14C34.5781 9.51562 34.0469 4.90625 32.3125 0.734375ZM69.5938 45.8438C66.125 45.9062 62.7188 46.7031 59.5938 48.2031C56.4688 49.7031 53.7031 51.8438 51.4688 54.5C49.2344 57.1562 47.625 60.2656 46.7031 63.6094C45.7812 66.9531 45.5938 70.4531 46.1562 73.875C46.4531 75.7344 46.9688 77.5469 47.6875 79.2812C63.6094 76.1875 76.1562 63.625 79.2656 47.7031C76.2031 46.4375 72.9219 45.8125 69.5938 45.8594V45.8438Z" fill="#6ED654"/>
</g>
<defs>
<clipPath id="clip0_66_6">
<rect width="80" height="80" fill="white"/>
</clipPath>
</defs>
</svg>
